<svg width="1024" height="1024" viewBox="0 0 1024 1024" fill="none" xmlns="http://www.w3.org/2000/svg">
  <defs>
    <linearGradient id="bg" x1="160" y1="120" x2="864" y2="904" gradientUnits="userSpaceOnUse">
      <stop stop-color="#2E241B"/>
      <stop offset="1" stop-color="#120F0B"/>
    </linearGradient>
    <linearGradient id="gold" x1="286" y1="250" x2="741" y2="774" gradientUnits="userSpaceOnUse">
      <stop stop-color="#F8E8A3"/>
      <stop offset="0.35" stop-color="#E3BF62"/>
      <stop offset="0.68" stop-color="#C99634"/>
      <stop offset="1" stop-color="#F4DB8A"/>
    </linearGradient>
    <linearGradient id="shine" x1="392" y1="290" x2="610" y2="585" gradientUnits="userSpaceOnUse">
      <stop stop-color="#FFF7D0" stop-opacity="0.95"/>
      <stop offset="1" stop-color="#FFF7D0" stop-opacity="0"/>
    </linearGradient>
    <filter id="shadow" x="152" y="144" width="720" height="720" filterUnits="userSpaceOnUse" color-interpolation-filters="sRGB">
      <feFlood flood-opacity="0" result="BackgroundImageFix"/>
      <feColorMatrix in="SourceAlpha" type="matrix" values="0 0 0 0 0 0 0 0 0 0 0 0 0 0 0 0 0 0 127 0" result="hardAlpha"/>
      <feOffset dy="26"/>
      <feGaussianBlur stdDeviation="26"/>
      <feColorMatrix type="matrix" values="0 0 0 0 0.02 0 0 0 0 0.015 0 0 0 0 0.01 0 0 0 0.35 0"/>
      <feBlend mode="normal" in2="BackgroundImageFix" result="effect1_dropShadow_1_1"/>
      <feBlend mode="normal" in="SourceGraphic" in2="effect1_dropShadow_1_1" result="shape"/>
    </filter>
  </defs>
  <rect width="1024" height="1024" rx="236" fill="url(#bg)"/>
  <circle cx="512" cy="512" r="304" fill="#1B1610"/>
  <circle cx="512" cy="512" r="286" stroke="#5D4823" stroke-width="18"/>
  <g filter="url(#shadow)">
    <path d="M512 240L680 364V612L512 784L344 612V364L512 240Z" fill="url(#gold)"/>
    <path d="M512 240L680 364L512 452L344 364L512 240Z" fill="#F8E8A3" fill-opacity="0.65"/>
    <path d="M512 452V784" stroke="#8F651F" stroke-width="26" stroke-linecap="round"/>
    <path d="M344 364L512 452L680 364" stroke="#8F651F" stroke-width="26" stroke-linecap="round" stroke-linejoin="round"/>
    <path d="M344 364V612L512 784L680 612V364" stroke="#8F651F" stroke-width="26" stroke-linecap="round" stroke-linejoin="round"/>
    <path d="M398 512L512 584L624 512" stroke="#FFF2BA" stroke-width="18" stroke-linecap="round" stroke-linejoin="round" opacity="0.9"/>
    <path d="M452 336L512 372L572 336" stroke="#FFF2BA" stroke-width="16" stroke-linecap="round" stroke-linejoin="round" opacity="0.85"/>
    <ellipse cx="470" cy="416" rx="144" ry="98" transform="rotate(-28 470 416)" fill="url(#shine)"/>
  </g>
  <path d="M222 266C288 182 386 128 512 128" stroke="#FFF4C8" stroke-opacity="0.24" stroke-width="22" stroke-linecap="round"/>
  <path d="M774 754C718 828 632 884 512 896" stroke="#D9B65A" stroke-opacity="0.28" stroke-width="18" stroke-linecap="round"/>
</svg>